<svg width="371" height="163" viewBox="0 0 371 163" fill="none" xmlns="http://www.w3.org/2000/svg">
<path d="M3 117C3 116.172 2.32843 115.5 1.5 115.5C0.671573 115.5 0 116.172 0 117H3ZM360.561 0.93934C359.975 0.353553 359.025 0.353553 358.439 0.93934L348.893 10.4853C348.308 11.0711 348.308 12.0208 348.893 12.6066C349.479 13.1924 350.429 13.1924 351.015 12.6066L359.5 4.12132L367.985 12.6066C368.571 13.1924 369.521 13.1924 370.107 12.6066C370.692 12.0208 370.692 11.0711 370.107 10.4853L360.561 0.93934ZM0 117V124.273H3V117H0ZM0 129.727V137H3V129.727H0ZM0 137C0 139.493 0.358236 141.905 1.02701 144.186L3.90583 143.342C3.31659 141.332 3 139.205 3 137H0ZM3.11568 149.224C5.45878 153.506 8.99402 157.041 13.2761 159.384L14.7162 156.753C10.937 154.685 7.81535 151.563 5.74746 147.784L3.11568 149.224ZM18.3138 161.473C20.5948 162.142 23.0069 162.5 25.5 162.5V159.5C23.2955 159.5 21.1675 159.183 19.1578 158.594L18.3138 161.473ZM25.5 162.5H33.5909V159.5H25.5V162.5ZM39.6591 162.5H55.8409V159.5H39.6591V162.5ZM61.9091 162.5H78.0909V159.5H61.9091V162.5ZM84.1591 162.5H100.341V159.5H84.1591V162.5ZM106.409 162.5H122.591V159.5H106.409V162.5ZM128.659 162.5H144.841V159.5H128.659V162.5ZM150.909 162.5H167.091V159.5H150.909V162.5ZM173.159 162.5H189.341V159.5H173.159V162.5ZM195.409 162.5H211.591V159.5H195.409V162.5ZM217.659 162.5H233.841V159.5H217.659V162.5ZM239.909 162.5H248V159.5H239.909V162.5ZM248 162.5C250.493 162.5 252.905 162.142 255.186 161.473L254.342 158.594C252.332 159.183 250.204 159.5 248 159.5V162.5ZM260.224 159.384C264.506 157.041 268.041 153.506 270.384 149.224L267.753 147.784C265.685 151.563 262.563 154.685 258.784 156.753L260.224 159.384ZM272.473 144.186C273.142 141.905 273.5 139.493 273.5 137H270.5C270.5 139.205 270.183 141.332 269.594 143.342L272.473 144.186ZM273.5 137V128.879H270.5V137H273.5ZM273.5 122.788V106.545H270.5V122.788H273.5ZM273.5 100.455V84.2121H270.5V100.455H273.5ZM273.5 78.1212V70H270.5V78.1212H273.5ZM273.5 70C273.5 67.7955 273.817 65.6675 274.406 63.6578L271.527 62.8138C270.858 65.0948 270.5 67.5069 270.5 70H273.5ZM276.247 59.2162C278.315 55.437 281.437 52.3153 285.216 50.2475L283.776 47.6157C279.494 49.9588 275.959 53.494 273.616 57.7761L276.247 59.2162ZM289.658 48.4058C291.668 47.8166 293.795 47.5 296 47.5V44.5C293.507 44.5 291.095 44.8582 288.814 45.527L289.658 48.4058ZM296 47.5H303.182V44.5H296V47.5ZM308.568 47.5H322.932V44.5H308.568V47.5ZM328.318 47.5H335.5V44.5H328.318V47.5ZM335.5 47.5C337.993 47.5 340.405 47.1418 342.686 46.473L341.842 43.5942C339.832 44.1834 337.705 44.5 335.5 44.5V47.5ZM347.724 44.3843C352.006 42.0412 355.541 38.506 357.884 34.2239L355.253 32.7838C353.185 36.563 350.063 39.6847 346.284 41.7525L347.724 44.3843ZM359.973 29.1862C360.642 26.9052 361 24.4931 361 22H358C358 24.2045 357.683 26.3325 357.094 28.3422L359.973 29.1862ZM361 22V14.7273H358V22H361ZM361 9.27273V2H358V9.27273H361Z" fill="#F8F8F8"/>
</svg>
